<svg xmlns="http://www.w3.org/2000/svg" width="980" height="520" viewBox="0 0 980 520">
  <defs>
    <marker id="arrow" markerWidth="10" markerHeight="7" refX="10" refY="3.5" orient="auto">
      <polygon points="0 0, 10 3.5, 0 7" fill="#334155" />
    </marker>
  </defs>

  <rect x="20" y="30" width="200" height="50" fill="#f1f5f9" stroke="#334155" />
  <text x="120" y="60" font-family="Arial" font-size="14" text-anchor="middle">Inputs</text>

  <rect x="20" y="100" width="140" height="50" fill="#f8fafc" stroke="#334155" />
  <text x="90" y="130" font-family="Arial" font-size="12" text-anchor="middle">tokens</text>

  <rect x="20" y="160" width="140" height="50" fill="#f8fafc" stroke="#334155" />
  <text x="90" y="190" font-family="Arial" font-size="12" text-anchor="middle">obs (vector)</text>

  <rect x="20" y="220" width="140" height="50" fill="#f8fafc" stroke="#334155" />
  <text x="90" y="250" font-family="Arial" font-size="12" text-anchor="middle">image (opt)</text>

  <rect x="200" y="100" width="160" height="50" fill="#e2e8f0" stroke="#334155" />
  <text x="280" y="130" font-family="Arial" font-size="12" text-anchor="middle">token_embed</text>

  <rect x="200" y="160" width="160" height="50" fill="#e2e8f0" stroke="#334155" />
  <text x="280" y="190" font-family="Arial" font-size="12" text-anchor="middle">obs_tokenizer</text>

  <rect x="200" y="220" width="160" height="50" fill="#e2e8f0" stroke="#334155" />
  <text x="280" y="250" font-family="Arial" font-size="12" text-anchor="middle">vision_encoder</text>

  <rect x="390" y="130" width="200" height="50" fill="#fef9c3" stroke="#92400e" />
  <text x="490" y="160" font-family="Arial" font-size="12" text-anchor="middle">special tokens &lt;OBS&gt;/&lt;ACT&gt;/&lt;VAL&gt;</text>

  <rect x="390" y="80" width="200" height="50" fill="#fef9c3" stroke="#92400e" />
  <text x="490" y="110" font-family="Arial" font-size="12" text-anchor="middle">concat + pos</text>

  <rect x="620" y="90" width="180" height="100" fill="#e0f2fe" stroke="#0369a1" />
  <text x="710" y="130" font-family="Arial" font-size="12" text-anchor="middle">Transformer</text>
  <text x="710" y="150" font-family="Arial" font-size="12" text-anchor="middle">Backbone</text>

  <rect x="830" y="110" width="120" height="60" fill="#f1f5f9" stroke="#334155" />
  <text x="890" y="145" font-family="Arial" font-size="12" text-anchor="middle">hidden states</text>

  <rect x="620" y="230" width="180" height="70" fill="#f8fafc" stroke="#334155" />
  <text x="710" y="255" font-family="Arial" font-size="12" text-anchor="middle">RecurrentState</text>
  <text x="710" y="275" font-family="Arial" font-size="12" text-anchor="middle">mem + KV cache</text>

  <rect x="830" y="210" width="120" height="40" fill="#dcfce7" stroke="#166534" />
  <text x="890" y="235" font-family="Arial" font-size="12" text-anchor="middle">text_logits</text>

  <rect x="830" y="260" width="120" height="40" fill="#dcfce7" stroke="#166534" />
  <text x="890" y="285" font-family="Arial" font-size="12" text-anchor="middle">action_logits</text>

  <rect x="830" y="310" width="120" height="40" fill="#dcfce7" stroke="#166534" />
  <text x="890" y="335" font-family="Arial" font-size="12" text-anchor="middle">value/world</text>

  <rect x="830" y="360" width="120" height="40" fill="#dcfce7" stroke="#166534" />
  <text x="890" y="385" font-family="Arial" font-size="12" text-anchor="middle">uncertainty</text>

  <line x1="160" y1="125" x2="200" y2="125" stroke="#334155" marker-end="url(#arrow)" />
  <line x1="160" y1="185" x2="200" y2="185" stroke="#334155" marker-end="url(#arrow)" />
  <line x1="160" y1="245" x2="200" y2="245" stroke="#94a3b8" marker-end="url(#arrow)" />

  <line x1="360" y1="125" x2="390" y2="105" stroke="#334155" marker-end="url(#arrow)" />
  <line x1="360" y1="185" x2="390" y2="155" stroke="#334155" marker-end="url(#arrow)" />
  <line x1="360" y1="245" x2="390" y2="155" stroke="#94a3b8" marker-end="url(#arrow)" />

  <line x1="590" y1="105" x2="620" y2="120" stroke="#334155" marker-end="url(#arrow)" />
  <line x1="590" y1="155" x2="620" y2="150" stroke="#334155" marker-end="url(#arrow)" />

  <line x1="800" y1="140" x2="830" y2="140" stroke="#334155" marker-end="url(#arrow)" />
  <line x1="710" y1="190" x2="710" y2="230" stroke="#94a3b8" marker-end="url(#arrow)" />

  <line x1="890" y1="170" x2="890" y2="210" stroke="#334155" marker-end="url(#arrow)" />
  <line x1="890" y1="250" x2="890" y2="260" stroke="#334155" marker-end="url(#arrow)" />
  <line x1="890" y1="300" x2="890" y2="310" stroke="#334155" marker-end="url(#arrow)" />
  <line x1="890" y1="350" x2="890" y2="360" stroke="#334155" marker-end="url(#arrow)" />
</svg>
