<svg xmlns="http://www.w3.org/2000/svg" width="980" height="360" viewBox="0 0 980 360">
  <defs>
    <marker id="arrow" markerWidth="10" markerHeight="7" refX="10" refY="3.5" orient="auto">
      <polygon points="0 0, 10 3.5, 0 7" fill="#334155" />
    </marker>
  </defs>

  <rect x="20" y="30" width="200" height="50" fill="#f1f5f9" stroke="#334155" />
  <text x="120" y="60" font-family="Arial" font-size="14" text-anchor="middle">Hidden States</text>

  <rect x="260" y="40" width="150" height="50" fill="#f8fafc" stroke="#334155" />
  <text x="335" y="70" font-family="Arial" font-size="12" text-anchor="middle">LanguageHead</text>

  <rect x="260" y="110" width="150" height="50" fill="#f8fafc" stroke="#334155" />
  <text x="335" y="140" font-family="Arial" font-size="12" text-anchor="middle">PolicyHead</text>

  <rect x="260" y="180" width="150" height="50" fill="#f8fafc" stroke="#334155" />
  <text x="335" y="210" font-family="Arial" font-size="12" text-anchor="middle">ValueHead</text>

  <rect x="260" y="250" width="150" height="50" fill="#f8fafc" stroke="#334155" />
  <text x="335" y="280" font-family="Arial" font-size="12" text-anchor="middle">WorldHead</text>

  <rect x="460" y="40" width="150" height="50" fill="#e0f2fe" stroke="#0369a1" />
  <text x="535" y="70" font-family="Arial" font-size="12" text-anchor="middle">text_logits</text>

  <rect x="460" y="110" width="150" height="50" fill="#e0f2fe" stroke="#0369a1" />
  <text x="535" y="140" font-family="Arial" font-size="12" text-anchor="middle">action_logits</text>

  <rect x="460" y="180" width="150" height="50" fill="#e0f2fe" stroke="#0369a1" />
  <text x="535" y="210" font-family="Arial" font-size="12" text-anchor="middle">value</text>

  <rect x="460" y="250" width="150" height="50" fill="#e0f2fe" stroke="#0369a1" />
  <text x="535" y="280" font-family="Arial" font-size="12" text-anchor="middle">world_pred</text>

  <rect x="660" y="90" width="160" height="50" fill="#fef9c3" stroke="#92400e" />
  <text x="740" y="120" font-family="Arial" font-size="12" text-anchor="middle">Uncertainty</text>

  <rect x="660" y="160" width="160" height="50" fill="#fef9c3" stroke="#92400e" />
  <text x="740" y="190" font-family="Arial" font-size="12" text-anchor="middle">Budget/Reflect</text>

  <rect x="830" y="120" width="130" height="50" fill="#dcfce7" stroke="#166534" />
  <text x="895" y="150" font-family="Arial" font-size="12" text-anchor="middle">Outputs</text>

  <line x1="220" y1="55" x2="260" y2="65" stroke="#334155" marker-end="url(#arrow)" />
  <line x1="220" y1="55" x2="260" y2="135" stroke="#334155" marker-end="url(#arrow)" />
  <line x1="220" y1="55" x2="260" y2="205" stroke="#334155" marker-end="url(#arrow)" />
  <line x1="220" y1="55" x2="260" y2="275" stroke="#334155" marker-end="url(#arrow)" />

  <line x1="410" y1="65" x2="460" y2="65" stroke="#334155" marker-end="url(#arrow)" />
  <line x1="410" y1="135" x2="460" y2="135" stroke="#334155" marker-end="url(#arrow)" />
  <line x1="410" y1="205" x2="460" y2="205" stroke="#334155" marker-end="url(#arrow)" />
  <line x1="410" y1="275" x2="460" y2="275" stroke="#334155" marker-end="url(#arrow)" />

  <line x1="610" y1="135" x2="660" y2="115" stroke="#94a3b8" marker-end="url(#arrow)" />
  <line x1="610" y1="205" x2="660" y2="185" stroke="#94a3b8" marker-end="url(#arrow)" />
  <line x1="820" y1="145" x2="830" y2="145" stroke="#334155" marker-end="url(#arrow)" />
</svg>
